<?xml version="1.0" encoding="UTF-8" standalone="no"?>
<!DOCTYPE svg PUBLIC "-//W3C//DTD SVG 1.1//EN"
 "http://www.w3.org/Graphics/SVG/1.1/DTD/svg11.dtd">
<!-- Generated by graphviz version 14.0.2 (20251019.1705)
 -->
<!-- Title: conflits Pages: 1 -->
<svg width="2180pt" height="1431pt"
 viewBox="0.00 0.00 2180.00 1431.00" xmlns="http://www.w3.org/2000/svg" xmlns:xlink="http://www.w3.org/1999/xlink">
<g id="graph0" class="graph" transform="scale(4.16667 4.16667) rotate(0) translate(4 339.5)">
<title>conflits</title>
<polygon fill="white" stroke="none" points="-4,4 -4,-339.5 519.25,-339.5 519.25,4 -4,4"/>
<text xml:space="preserve" text-anchor="middle" x="257.62" y="-318.2" font-family="Times New Roman,serif" font-size="14.00">CONFLITS</text>
<!-- nd1 -->
<g id="node1" class="node">
<title>nd1</title>
<polygon fill="none" stroke="black" points="195.5,-311 34,-311 34,-260.25 195.5,-260.25 195.5,-311"/>
<text xml:space="preserve" text-anchor="middle" x="114.75" y="-295.6" font-family="Times New Roman,serif" font-size="12.00">EST&#45;CE QU&#39;UN </text>
<text xml:space="preserve" text-anchor="middle" x="114.75" y="-281.35" font-family="Times New Roman,serif" font-size="12.00"> PERSONNAGE S&#39;OPPOSE </text>
<text xml:space="preserve" text-anchor="middle" x="114.75" y="-267.1" font-family="Times New Roman,serif" font-size="12.00"> AU PROTAGONISTE ?</text>
</g>
<!-- nd2 -->
<g id="node2" class="node">
<title>nd2</title>
<polygon fill="none" stroke="black" points="197.5,-123 0,-123 0,-87 197.5,-87 197.5,-123"/>
<text xml:space="preserve" text-anchor="middle" x="98.75" y="-100.72" font-family="Times New Roman,serif" font-size="12.00">POSEZ UNE QUESTION FERMÉE</text>
</g>
<!-- nd1&#45;&gt;nd2 -->
<g id="edge1" class="edge">
<title>nd1&#45;&gt;nd2</title>
<path fill="none" stroke="black" d="M112.53,-259.79C109.58,-226.95 104.41,-169.2 101.31,-134.58"/>
<polygon fill="black" stroke="black" points="104.82,-134.53 100.44,-124.88 97.85,-135.16 104.82,-134.53"/>
<text xml:space="preserve" text-anchor="middle" x="95.95" y="-194.8" font-family="Times New Roman,serif" font-size="12.00">Non</text>
</g>
<!-- nd3 -->
<g id="node3" class="node">
<title>nd3</title>
<polygon fill="none" stroke="black" points="238.75,-210 126.75,-210 126.75,-173.5 238.75,-173.5 238.75,-210"/>
<text xml:space="preserve" text-anchor="middle" x="182.75" y="-194.6" font-family="Times New Roman,serif" font-size="12.00">VOULEZ&#45;VOUS </text>
<text xml:space="preserve" text-anchor="middle" x="182.75" y="-180.35" font-family="Times New Roman,serif" font-size="12.00"> FAIRE ÇA VITE ?</text>
</g>
<!-- nd1&#45;&gt;nd3 -->
<g id="edge2" class="edge">
<title>nd1&#45;&gt;nd3</title>
<path fill="none" stroke="black" d="M132.97,-260C142.19,-247.55 153.39,-232.41 162.84,-219.65"/>
<polygon fill="black" stroke="black" points="165.62,-221.78 168.75,-211.66 159.99,-217.62 165.62,-221.78"/>
<text xml:space="preserve" text-anchor="middle" x="163.84" y="-230.85" font-family="Times New Roman,serif" font-size="12.00">Oui</text>
</g>
<!-- nd3&#45;&gt;nd2 -->
<g id="edge3" class="edge">
<title>nd3&#45;&gt;nd2</title>
<path fill="none" stroke="black" d="M165.35,-173.19C153.33,-161.06 137.16,-144.75 123.77,-131.24"/>
<polygon fill="black" stroke="black" points="126.44,-128.96 116.91,-124.32 121.46,-133.89 126.44,-128.96"/>
<text xml:space="preserve" text-anchor="middle" x="131.66" y="-151.13" font-family="Times New Roman,serif" font-size="12.00">Oui</text>
</g>
<!-- nd4 -->
<g id="node4" class="node">
<title>nd4</title>
<polygon fill="none" stroke="black" points="405.75,-123.25 215.75,-123.25 215.75,-86.75 405.75,-86.75 405.75,-123.25"/>
<text xml:space="preserve" text-anchor="middle" x="310.75" y="-107.85" font-family="Times New Roman,serif" font-size="12.00">VOULEZ&#45;VOUS </text>
<text xml:space="preserve" text-anchor="middle" x="310.75" y="-93.6" font-family="Times New Roman,serif" font-size="12.00"> SPÉCIFIER CHAQUE ACTION ?</text>
</g>
<!-- nd3&#45;&gt;nd4 -->
<g id="edge4" class="edge">
<title>nd3&#45;&gt;nd4</title>
<path fill="none" stroke="black" d="M209.27,-173.19C228.24,-160.63 253.98,-143.59 274.79,-129.81"/>
<polygon fill="black" stroke="black" points="276.59,-132.81 283,-124.37 272.73,-126.98 276.59,-132.81"/>
<text xml:space="preserve" text-anchor="middle" x="264.91" y="-144.1" font-family="Times New Roman,serif" font-size="12.00">Non</text>
</g>
<!-- nd5 -->
<g id="node5" class="node">
<title>nd5</title>
<polygon fill="none" stroke="black" points="310.62,-36.5 86.88,-36.5 86.88,0 310.62,0 310.62,-36.5"/>
<text xml:space="preserve" text-anchor="middle" x="198.75" y="-21.1" font-family="Times New Roman,serif" font-size="12.00">POSEZ UNE QUESTION FERMÉE </text>
<text xml:space="preserve" text-anchor="middle" x="198.75" y="-6.85" font-family="Times New Roman,serif" font-size="12.00"> POUR RÉSOUDRE CHAQUE ACTION</text>
</g>
<!-- nd4&#45;&gt;nd5 -->
<g id="edge5" class="edge">
<title>nd4&#45;&gt;nd5</title>
<path fill="none" stroke="black" d="M287.54,-86.44C271.17,-74.05 249.03,-57.3 230.96,-43.62"/>
<polygon fill="black" stroke="black" points="233.22,-40.94 223.13,-37.7 229,-46.53 233.22,-40.94"/>
<text xml:space="preserve" text-anchor="middle" x="245.8" y="-64.52" font-family="Times New Roman,serif" font-size="12.00">Oui</text>
</g>
<!-- nd6 -->
<g id="node6" class="node">
<title>nd6</title>
<polygon fill="none" stroke="black" points="515.25,-36.25 328.25,-36.25 328.25,-0.25 515.25,-0.25 515.25,-36.25"/>
<text xml:space="preserve" text-anchor="middle" x="421.75" y="-13.97" font-family="Times New Roman,serif" font-size="12.00">UTILISEZ CHANCE &amp; DÉGÂTS</text>
</g>
<!-- nd4&#45;&gt;nd6 -->
<g id="edge6" class="edge">
<title>nd4&#45;&gt;nd6</title>
<path fill="none" stroke="black" d="M333.75,-86.44C350.08,-73.97 372.21,-57.08 390.19,-43.35"/>
<polygon fill="black" stroke="black" points="392.13,-46.27 397.96,-37.42 387.88,-40.7 392.13,-46.27"/>
<text xml:space="preserve" text-anchor="middle" x="383.4" y="-57.35" font-family="Times New Roman,serif" font-size="12.00">Non</text>
</g>
</g>
</svg>
