<?xml version="1.0" encoding="UTF-8" standalone="no"?>
<!DOCTYPE svg PUBLIC "-//W3C//DTD SVG 1.1//EN"
 "http://www.w3.org/Graphics/SVG/1.1/DTD/svg11.dtd">
<!-- Generated by graphviz version 14.0.2 (20251019.1705)
 -->
<!-- Title: consulting_oracle Pages: 1 -->
<svg width="569pt" height="590pt"
 viewBox="0.00 0.00 569.00 590.00" xmlns="http://www.w3.org/2000/svg" xmlns:xlink="http://www.w3.org/1999/xlink">
<g id="graph0" class="graph" transform="scale(1 1) rotate(0) translate(4 585.5)">
<title>consulting_oracle</title>
<polygon fill="white" stroke="none" points="-4,4 -4,-585.5 564.62,-585.5 564.62,4 -4,4"/>
<text xml:space="preserve" text-anchor="middle" x="280.31" y="-564.2" font-family="Times New Roman,serif" font-size="14.00">CONSULTER L&#39;ORACLE</text>
<!-- id1 -->
<g id="node1" class="node">
<title>id1</title>
<polygon fill="none" stroke="black" points="326.88,-557 169.88,-557 169.88,-521 326.88,-521 326.88,-557"/>
<text xml:space="preserve" text-anchor="middle" x="248.38" y="-534.73" font-family="Times New Roman,serif" font-size="12.00">LE PROTAGONISTE AGIT</text>
</g>
<!-- id2 -->
<g id="node2" class="node">
<title>id2</title>
<polygon fill="none" stroke="black" points="223.25,-456.5 83.5,-456.5 83.5,-420 223.25,-420 223.25,-456.5"/>
<text xml:space="preserve" text-anchor="middle" x="153.38" y="-441.1" font-family="Times New Roman,serif" font-size="12.00">RESOLVEZ L&#39;ACTION </text>
<text xml:space="preserve" text-anchor="middle" x="153.38" y="-426.85" font-family="Times New Roman,serif" font-size="12.00"> DIÉGÉTIQUEMENT</text>
</g>
<!-- id1&#45;&gt;id2 -->
<g id="edge1" class="edge">
<title>id1&#45;&gt;id2</title>
<path fill="none" stroke="black" d="M201.38,-520.54C192.93,-515.82 184.79,-510.02 178.38,-503 169.38,-493.16 163.47,-479.7 159.66,-467.69"/>
<polygon fill="black" stroke="black" points="163.09,-466.94 157.04,-458.24 156.34,-468.81 163.09,-466.94"/>
<text xml:space="preserve" text-anchor="middle" x="152.78" y="-496.26" font-family="Times New Roman,serif" font-size="12.00">Évident</text>
</g>
<!-- id3 -->
<g id="node3" class="node">
<title>id3</title>
<polygon fill="none" stroke="black" points="401,-456.25 241.75,-456.25 241.75,-420.25 401,-420.25 401,-456.25"/>
<text xml:space="preserve" text-anchor="middle" x="321.38" y="-433.98" font-family="Times New Roman,serif" font-size="12.00">DEMANDEZ À L&#39;ORACLE</text>
</g>
<!-- id1&#45;&gt;id3 -->
<g id="edge3" class="edge">
<title>id1&#45;&gt;id3</title>
<path fill="none" stroke="black" d="M264.04,-520.52C268.78,-515.02 273.91,-508.86 278.38,-503 287.32,-491.25 296.57,-477.76 304.18,-466.22"/>
<polygon fill="black" stroke="black" points="307.04,-468.23 309.57,-457.94 301.18,-464.41 307.04,-468.23"/>
<text xml:space="preserve" text-anchor="middle" x="320.09" y="-491.6" font-family="Times New Roman,serif" font-size="12.00">Incertain/</text>
<text xml:space="preserve" text-anchor="middle" x="320.09" y="-477.35" font-family="Times New Roman,serif" font-size="12.00">Évident</text>
</g>
<!-- id2&#45;&gt;id1 -->
<g id="edge2" class="edge">
<title>id2&#45;&gt;id1</title>
<path fill="none" stroke="black" d="M165.83,-456.82C178.29,-474.29 196.16,-499.06 200.12,-503 203.91,-506.77 208.14,-510.44 212.47,-513.91"/>
<polygon fill="black" stroke="black" points="210.11,-516.51 220.19,-519.77 214.34,-510.93 210.11,-516.51"/>
<text xml:space="preserve" text-anchor="middle" x="237.25" y="-484.48" font-family="Times New Roman,serif" font-size="12.00">Action suivante</text>
</g>
<!-- id4 -->
<g id="node4" class="node">
<title>id4</title>
<polygon fill="none" stroke="black" points="130.75,-369.75 0,-369.75 0,-319 130.75,-319 130.75,-369.75"/>
<text xml:space="preserve" text-anchor="middle" x="65.38" y="-354.35" font-family="Times New Roman,serif" font-size="12.00">JET: </text>
<text xml:space="preserve" text-anchor="middle" x="65.38" y="-340.1" font-family="Times New Roman,serif" font-size="12.00"> &#160;2 DÉS DE CHANCE </text>
<text xml:space="preserve" text-anchor="middle" x="65.38" y="-325.85" font-family="Times New Roman,serif" font-size="12.00"> ET 1 DÉ DE RISQUE</text>
</g>
<!-- id3&#45;&gt;id4 -->
<g id="edge4" class="edge">
<title>id3&#45;&gt;id4</title>
<path fill="none" stroke="black" d="M272.62,-419.75C235.58,-406.46 183.93,-387.92 141.46,-372.68"/>
<polygon fill="black" stroke="black" points="142.9,-369.48 132.3,-369.39 140.53,-376.07 142.9,-369.48"/>
<text xml:space="preserve" text-anchor="middle" x="179.43" y="-397.1" font-family="Times New Roman,serif" font-size="12.00">Avantage</text>
</g>
<!-- id5 -->
<g id="node5" class="node">
<title>id5</title>
<polygon fill="none" stroke="black" points="458.62,-369.75 330.12,-369.75 330.12,-319 458.62,-319 458.62,-369.75"/>
<text xml:space="preserve" text-anchor="middle" x="394.38" y="-354.35" font-family="Times New Roman,serif" font-size="12.00">JET: </text>
<text xml:space="preserve" text-anchor="middle" x="394.38" y="-340.1" font-family="Times New Roman,serif" font-size="12.00"> &#160;1 DÉ DE CHANCE </text>
<text xml:space="preserve" text-anchor="middle" x="394.38" y="-325.85" font-family="Times New Roman,serif" font-size="12.00"> ET 2 DÉ DE RISQUE</text>
</g>
<!-- id3&#45;&gt;id5 -->
<g id="edge8" class="edge">
<title>id3&#45;&gt;id5</title>
<path fill="none" stroke="black" d="M335.11,-419.97C344.25,-408.46 356.58,-392.95 367.62,-379.05"/>
<polygon fill="black" stroke="black" points="370.22,-381.4 373.7,-371.39 364.74,-377.05 370.22,-381.4"/>
<text xml:space="preserve" text-anchor="middle" x="393.44" y="-390.6" font-family="Times New Roman,serif" font-size="12.00">Désadvantage</text>
</g>
<!-- id6 -->
<g id="node6" class="node">
<title>id6</title>
<polygon fill="none" stroke="black" points="294.62,-369.75 166.12,-369.75 166.12,-319 294.62,-319 294.62,-369.75"/>
<text xml:space="preserve" text-anchor="middle" x="230.38" y="-354.35" font-family="Times New Roman,serif" font-size="12.00">JET: </text>
<text xml:space="preserve" text-anchor="middle" x="230.38" y="-340.1" font-family="Times New Roman,serif" font-size="12.00"> &#160;1 DÉ DE CHANCE </text>
<text xml:space="preserve" text-anchor="middle" x="230.38" y="-325.85" font-family="Times New Roman,serif" font-size="12.00"> ET 1 DÉ DE RISQUE</text>
</g>
<!-- id3&#45;&gt;id6 -->
<g id="edge7" class="edge">
<title>id3&#45;&gt;id6</title>
<path fill="none" stroke="black" d="M304.26,-419.97C292.64,-408.24 276.91,-392.35 262.94,-378.26"/>
<polygon fill="black" stroke="black" points="265.56,-375.93 256.04,-371.28 260.59,-380.85 265.56,-375.93"/>
</g>
<!-- id4&#45;&gt;id6 -->
<!-- id7 -->
<g id="node7" class="node">
<title>id7</title>
<polygon fill="none" stroke="black" points="404.5,-282 164.25,-282 164.25,-246 404.5,-246 404.5,-282"/>
<text xml:space="preserve" text-anchor="middle" x="284.38" y="-259.73" font-family="Times New Roman,serif" font-size="12.00">EST&#45;CE QUE LA RÉPONSE EST CLAIRE ?</text>
</g>
<!-- id4&#45;&gt;id7 -->
<g id="edge9" class="edge">
<title>id4&#45;&gt;id7</title>
<path fill="none" stroke="black" d="M131.08,-319.86C160.91,-309.18 195.93,-296.65 224.96,-286.26"/>
<polygon fill="black" stroke="black" points="226.11,-289.57 234.35,-282.9 223.75,-282.98 226.11,-289.57"/>
</g>
<!-- id5&#45;&gt;id7 -->
<g id="edge11" class="edge">
<title>id5&#45;&gt;id7</title>
<path fill="none" stroke="black" d="M359.57,-318.58C346.3,-309.12 331.21,-298.37 318.05,-288.99"/>
<polygon fill="black" stroke="black" points="320.26,-286.27 310.09,-283.32 316.2,-291.97 320.26,-286.27"/>
</g>
<!-- id6&#45;&gt;id5 -->
<!-- id6&#45;&gt;id7 -->
<g id="edge10" class="edge">
<title>id6&#45;&gt;id7</title>
<path fill="none" stroke="black" d="M247.46,-318.58C253.39,-309.97 260.05,-300.3 266.08,-291.56"/>
<polygon fill="black" stroke="black" points="268.87,-293.67 271.67,-283.45 263.11,-289.69 268.87,-293.67"/>
</g>
<!-- id8 -->
<g id="node8" class="node">
<title>id8</title>
<polygon fill="none" stroke="black" points="418.75,-36 282,-36 282,0 418.75,0 418.75,-36"/>
<text xml:space="preserve" text-anchor="middle" x="350.38" y="-13.72" font-family="Times New Roman,serif" font-size="12.00">RESOLVEZ L&#39;ACTION</text>
</g>
<!-- id7&#45;&gt;id8 -->
<g id="edge12" class="edge">
<title>id7&#45;&gt;id8</title>
<path fill="none" stroke="black" d="M305.23,-245.77C318.86,-233.31 335.84,-215.3 345.38,-195.75 369.48,-146.36 365.4,-127.73 360.38,-73 359.61,-64.71 358.21,-55.79 356.69,-47.63"/>
<polygon fill="black" stroke="black" points="360.13,-47 354.73,-37.88 353.26,-48.37 360.13,-47"/>
<text xml:space="preserve" text-anchor="middle" x="375.07" y="-129.85" font-family="Times New Roman,serif" font-size="12.00">OUI</text>
</g>
<!-- id9 -->
<g id="node9" class="node">
<title>id9</title>
<polygon fill="none" stroke="black" points="336.25,-195.75 232.5,-195.75 232.5,-159.25 336.25,-159.25 336.25,-195.75"/>
<text xml:space="preserve" text-anchor="middle" x="284.38" y="-180.35" font-family="Times New Roman,serif" font-size="12.00">REDEMANDEZ </text>
<text xml:space="preserve" text-anchor="middle" x="284.38" y="-166.1" font-family="Times New Roman,serif" font-size="12.00"> (Max 3)</text>
</g>
<!-- id7&#45;&gt;id9 -->
<g id="edge13" class="edge">
<title>id7&#45;&gt;id9</title>
<path fill="none" stroke="black" d="M284.38,-245.9C284.38,-234.94 284.38,-220.42 284.38,-207.67"/>
<polygon fill="black" stroke="black" points="287.88,-207.67 284.38,-197.67 280.88,-207.67 287.88,-207.67"/>
<text xml:space="preserve" text-anchor="middle" x="297.88" y="-216.6" font-family="Times New Roman,serif" font-size="12.00">NON</text>
</g>
<!-- id8&#45;&gt;id1 -->
<g id="edge17" class="edge">
<title>id8&#45;&gt;id1</title>
<path fill="none" stroke="black" d="M419.17,-29.15C452.9,-38.44 486.38,-56.17 486.38,-90 486.38,-439.25 486.38,-439.25 486.38,-439.25 486.38,-505.89 405.8,-528.41 338.41,-535.59"/>
<polygon fill="black" stroke="black" points="338.42,-532.08 328.8,-536.51 339.09,-539.05 338.42,-532.08"/>
<text xml:space="preserve" text-anchor="middle" x="523.5" y="-398.45" font-family="Times New Roman,serif" font-size="12.00">Action suivante</text>
</g>
<!-- id9&#45;&gt;id8 -->
<g id="edge14" class="edge">
<title>id9&#45;&gt;id8</title>
<path fill="none" stroke="black" d="M291.69,-159.04C303.1,-131.82 325.23,-79.02 338.81,-46.6"/>
<polygon fill="black" stroke="black" points="342.01,-48.03 342.64,-37.45 335.55,-45.32 342.01,-48.03"/>
<text xml:space="preserve" text-anchor="middle" x="341.92" y="-86.72" font-family="Times New Roman,serif" font-size="12.00">Claire</text>
</g>
<!-- id10 -->
<g id="node10" class="node">
<title>id10</title>
<polygon fill="none" stroke="black" points="286.12,-109 148.62,-109 148.62,-73 286.12,-73 286.12,-109"/>
<text xml:space="preserve" text-anchor="middle" x="217.38" y="-86.72" font-family="Times New Roman,serif" font-size="12.00">QUESTION OUVERTE</text>
</g>
<!-- id9&#45;&gt;id10 -->
<g id="edge15" class="edge">
<title>id9&#45;&gt;id10</title>
<path fill="none" stroke="black" d="M270.49,-158.99C261.15,-147.21 248.66,-131.46 238.14,-118.19"/>
<polygon fill="black" stroke="black" points="241.14,-116.33 232.18,-110.67 235.65,-120.68 241.14,-116.33"/>
<text xml:space="preserve" text-anchor="middle" x="230.93" y="-137.01" font-family="Times New Roman,serif" font-size="12.00">Confuse</text>
</g>
<!-- id10&#45;&gt;id8 -->
<g id="edge16" class="edge">
<title>id10&#45;&gt;id8</title>
<path fill="none" stroke="black" d="M249.91,-72.63C267.3,-63.35 288.93,-51.8 307.65,-41.81"/>
<polygon fill="black" stroke="black" points="309.21,-44.95 316.38,-37.15 305.91,-38.77 309.21,-44.95"/>
</g>
</g>
</svg>
