<?xml version="1.0" encoding="UTF-8" standalone="no"?>
<!DOCTYPE svg PUBLIC "-//W3C//DTD SVG 1.1//EN"
 "http://www.w3.org/Graphics/SVG/1.1/DTD/svg11.dtd">
<!-- Generated by graphviz version 14.0.2 (20251019.1705)
 -->
<!-- Title: debuter Pages: 1 -->
<svg width="297pt" height="276pt"
 viewBox="0.00 0.00 297.00 276.00" xmlns="http://www.w3.org/2000/svg" xmlns:xlink="http://www.w3.org/1999/xlink">
<g id="graph0" class="graph" transform="scale(1 1) rotate(0) translate(4 272.25)">
<title>debuter</title>
<polygon fill="white" stroke="none" points="-4,4 -4,-272.25 293,-272.25 293,4 -4,4"/>
<text xml:space="preserve" text-anchor="middle" x="144.5" y="-250.95" font-family="Times New Roman,serif" font-size="14.00">DÉBUTER</text>
<!-- st1 -->
<g id="node1" class="node">
<title>st1</title>
<text xml:space="preserve" text-anchor="middle" x="75.75" y="-232.35" font-family="Times New Roman,serif" font-size="12.00">CHOISISSEZ UN THÈME, </text>
<text xml:space="preserve" text-anchor="middle" x="75.75" y="-218.1" font-family="Times New Roman,serif" font-size="12.00"> GENRE, OU UNIVERS</text>
</g>
<!-- pg1 -->
<g id="node4" class="node">
<title>pg1</title>
<text xml:space="preserve" text-anchor="middle" x="75.75" y="-167.85" font-family="Times New Roman,serif" font-size="12.00">CREEZ LE PROTAGONISTE</text>
</g>
<!-- st1&#45;&gt;pg1 -->
<g id="edge1" class="edge">
<title>st1&#45;&gt;pg1</title>
<path fill="none" stroke="black" d="M69.91,-215.38C68.87,-207.82 68.72,-198.24 69.47,-190.12"/>
<polygon fill="black" stroke="black" points="72.87,-190.98 71.12,-180.53 65.97,-189.79 72.87,-190.98"/>
</g>
<!-- st2 -->
<g id="node2" class="node">
<title>st2</title>
<text xml:space="preserve" text-anchor="middle" x="226.75" y="-232.35" font-family="Times New Roman,serif" font-size="12.00">CHERCHEZ DES</text>
<text xml:space="preserve" text-anchor="middle" x="226.75" y="-218.1" font-family="Times New Roman,serif" font-size="12.00"> TROPES PERTINENTS</text>
</g>
<!-- st2&#45;&gt;pg1 -->
<g id="edge2" class="edge">
<title>st2&#45;&gt;pg1</title>
<path fill="none" stroke="black" d="M190.97,-215.38C164.01,-205.49 127.62,-192.15 103,-183.12"/>
<polygon fill="black" stroke="black" points="104.29,-179.86 93.7,-179.71 101.88,-186.44 104.29,-179.86"/>
</g>
<!-- id1 -->
<g id="node3" class="node">
<title>id1</title>
<text xml:space="preserve" text-anchor="middle" x="75.75" y="-53.1" font-family="Times New Roman,serif" font-size="12.00">DECRIVEZ LA SCÈNE</text>
</g>
<!-- id2 -->
<g id="node6" class="node">
<title>id2</title>
<text xml:space="preserve" text-anchor="middle" x="75.75" y="-2.85" font-family="Times New Roman,serif" font-size="12.00">JOUEZ LA SCÈNE</text>
</g>
<!-- id1&#45;&gt;id2 -->
<g id="edge7" class="edge">
<title>id1&#45;&gt;id2</title>
<path fill="none" stroke="black" d="M75.75,-50.46C75.75,-44.24 75.75,-34.15 75.75,-25.39"/>
<polygon fill="black" stroke="black" points="79.25,-25.6 75.75,-15.6 72.25,-25.6 79.25,-25.6"/>
</g>
<!-- pg1&#45;&gt;st1 -->
<g id="edge4" class="edge">
<title>pg1&#45;&gt;st1</title>
<path fill="none" stroke="black" d="M80.12,-179.04C81.92,-185.1 82.7,-194.91 82.45,-204.2"/>
<polygon fill="black" stroke="black" points="78.99,-203.63 81.71,-213.87 85.97,-204.17 78.99,-203.63"/>
</g>
<!-- pg1&#45;&gt;id1 -->
<g id="edge3" class="edge">
<title>pg1&#45;&gt;id1</title>
<path fill="none" stroke="black" d="M68.41,-165.2C59.87,-157.79 46.24,-144.2 40.75,-129 36.45,-117.09 36.45,-112.41 40.75,-100.5 44.7,-89.57 52.85,-79.48 60.29,-71.91"/>
<polygon fill="black" stroke="black" points="62.41,-74.73 67.31,-65.33 57.62,-69.62 62.41,-74.73"/>
</g>
<!-- pg2 -->
<g id="node5" class="node">
<title>pg2</title>
<text xml:space="preserve" text-anchor="middle" x="129.75" y="-117.6" font-family="Times New Roman,serif" font-size="12.00">JETEZ UN ŒIL À </text>
<text xml:space="preserve" text-anchor="middle" x="129.75" y="-103.35" font-family="Times New Roman,serif" font-size="12.00"> L&#39;OBJECTIF ET LA NÉMÉSIS</text>
</g>
<!-- pg1&#45;&gt;pg2 -->
<g id="edge5" class="edge">
<title>pg1&#45;&gt;pg2</title>
<path fill="none" stroke="black" stroke-dasharray="1,5" d="M81.53,-165.2C88.08,-158.49 99.12,-147.16 108.99,-137.04"/>
<polygon fill="black" stroke="black" points="111.34,-139.64 115.82,-130.04 106.33,-134.75 111.34,-139.64"/>
</g>
<!-- pg2&#45;&gt;id1 -->
<g id="edge6" class="edge">
<title>pg2&#45;&gt;id1</title>
<path fill="none" stroke="black" stroke-dasharray="1,5" d="M116.95,-100.63C108.71,-92.17 97.99,-81.18 89.55,-72.53"/>
<polygon fill="black" stroke="black" points="92.06,-70.09 82.58,-65.37 87.05,-74.98 92.06,-70.09"/>
</g>
</g>
</svg>
