<?xml version="1.0" encoding="UTF-8" standalone="no"?>
<!DOCTYPE svg PUBLIC "-//W3C//DTD SVG 1.1//EN"
 "http://www.w3.org/Graphics/SVG/1.1/DTD/svg11.dtd">
<!-- Generated by graphviz version 14.0.2 (20251019.1705)
 -->
<!-- Title: scene_breakdown Pages: 1 -->
<svg width="1069pt" height="385pt"
 viewBox="0.00 0.00 1069.00 385.00" xmlns="http://www.w3.org/2000/svg" xmlns:xlink="http://www.w3.org/1999/xlink">
<g id="graph0" class="graph" transform="scale(1 1) rotate(0) translate(4 380.75)">
<title>scene_breakdown</title>
<polygon fill="white" stroke="none" points="-4,4 -4,-380.75 1065,-380.75 1065,4 -4,4"/>
<text xml:space="preserve" text-anchor="middle" x="530.5" y="-359.45" font-family="Times New Roman,serif" font-size="14.00">DECOUPAGE D&#39;UNE SCÈNE</text>
<g id="clust1" class="cluster">
<title>cluster_0</title>
<polygon fill="none" stroke="black" points="8,-8 8,-344.25 314,-344.25 314,-8 8,-8"/>
<text xml:space="preserve" text-anchor="middle" x="161" y="-326.95" font-family="Times New Roman,serif" font-size="14.00">1. IDENTIFIEZ VOS ATTENTES</text>
</g>
<g id="clust2" class="cluster">
<title>cluster_1</title>
<polygon fill="none" stroke="black" points="322,-8 322,-344.25 700,-344.25 700,-8 322,-8"/>
<text xml:space="preserve" text-anchor="middle" x="511" y="-326.95" font-family="Times New Roman,serif" font-size="14.00">2. TESTEZ VOS ATTENTES</text>
</g>
<g id="clust3" class="cluster">
<title>cluster_3</title>
<polygon fill="none" stroke="black" points="708,-8 708,-344.25 1053,-344.25 1053,-8 708,-8"/>
<text xml:space="preserve" text-anchor="middle" x="880.5" y="-326.95" font-family="Times New Roman,serif" font-size="14.00">3. INTERPRETEZ LE RÉSULTAT</text>
</g>
<!-- cs01 -->
<g id="node1" class="node">
<title>cs01</title>
<polygon fill="none" stroke="black" points="295,-311.75 27,-311.75 27,-275.75 295,-275.75 295,-311.75"/>
<text xml:space="preserve" text-anchor="middle" x="161" y="-289.48" font-family="Times New Roman,serif" font-size="12.00">REGARDEZ LES TRAITS DU PROTAGONISTE</text>
</g>
<!-- cs02 -->
<g id="node2" class="node">
<title>cs02</title>
<polygon fill="none" stroke="black" points="305.88,-225.5 16.12,-225.5 16.12,-189.5 305.88,-189.5 305.88,-225.5"/>
<text xml:space="preserve" text-anchor="middle" x="161" y="-203.22" font-family="Times New Roman,serif" font-size="12.00">DETERMINEZ LES ACTIONS DU PROTAGONISTE</text>
</g>
<!-- cs01&#45;&gt;cs02 -->
<g id="edge1" class="edge">
<title>cs01&#45;&gt;cs02</title>
<path fill="none" stroke="black" d="M161,-275.29C161,-264.34 161,-249.94 161,-237.32"/>
<polygon fill="black" stroke="black" points="164.5,-237.45 161,-227.45 157.5,-237.45 164.5,-237.45"/>
</g>
<!-- cs03 -->
<g id="node3" class="node">
<title>cs03</title>
<polygon fill="none" stroke="black" points="246.62,-152.5 75.38,-152.5 75.38,-116.5 246.62,-116.5 246.62,-152.5"/>
<text xml:space="preserve" text-anchor="middle" x="161" y="-130.22" font-family="Times New Roman,serif" font-size="12.00">FAITES REAGIR LE MONDE</text>
</g>
<!-- cs02&#45;&gt;cs03 -->
<g id="edge2" class="edge">
<title>cs02&#45;&gt;cs03</title>
<path fill="none" stroke="black" d="M161,-189.31C161,-181.73 161,-172.6 161,-164.04"/>
<polygon fill="black" stroke="black" points="164.5,-164.04 161,-154.04 157.5,-164.04 164.5,-164.04"/>
</g>
<!-- cs04 -->
<!-- cs03&#45;&gt;cs04 -->
<!-- cs11 -->
<g id="node5" class="node">
<title>cs11</title>
<polygon fill="none" stroke="black" points="586.25,-311.75 421.75,-311.75 421.75,-275.75 586.25,-275.75 586.25,-311.75"/>
<text xml:space="preserve" text-anchor="middle" x="504" y="-289.48" font-family="Times New Roman,serif" font-size="12.00">INCERTAIN OU ÉVIDENT ?</text>
</g>
<!-- cs12 -->
<g id="node6" class="node">
<title>cs12</title>
<polygon fill="none" stroke="black" points="487.88,-225.5 330.12,-225.5 330.12,-189.5 487.88,-189.5 487.88,-225.5"/>
<text xml:space="preserve" text-anchor="middle" x="409" y="-203.22" font-family="Times New Roman,serif" font-size="12.00">DEMANDEZ A L&#39;ORACLE</text>
</g>
<!-- cs11&#45;&gt;cs12 -->
<g id="edge4" class="edge">
<title>cs11&#45;&gt;cs12</title>
<path fill="none" stroke="black" d="M484.32,-275.29C470.69,-263.21 452.34,-246.94 437.17,-233.48"/>
<polygon fill="black" stroke="black" points="439.6,-230.96 429.79,-226.94 434.95,-236.19 439.6,-230.96"/>
<text xml:space="preserve" text-anchor="middle" x="471.19" y="-246.35" font-family="Times New Roman,serif" font-size="12.00">Oui</text>
</g>
<!-- cs13 -->
<g id="node7" class="node">
<title>cs13</title>
<polygon fill="none" stroke="black" points="691.75,-225.5 506.25,-225.5 506.25,-189.5 691.75,-189.5 691.75,-225.5"/>
<text xml:space="preserve" text-anchor="middle" x="599" y="-203.22" font-family="Times New Roman,serif" font-size="12.00">FAITES SELON LE CONTEXTE</text>
</g>
<!-- cs11&#45;&gt;cs13 -->
<g id="edge5" class="edge">
<title>cs11&#45;&gt;cs13</title>
<path fill="none" stroke="black" d="M523.68,-275.29C537.31,-263.21 555.66,-246.94 570.83,-233.48"/>
<polygon fill="black" stroke="black" points="573.05,-236.19 578.21,-226.94 568.4,-230.96 573.05,-236.19"/>
<text xml:space="preserve" text-anchor="middle" x="567.69" y="-246.35" font-family="Times New Roman,serif" font-size="12.00">Non</text>
</g>
<!-- cs14 -->
<g id="node8" class="node">
<title>cs14</title>
<polygon fill="none" stroke="black" points="583.5,-152.5 330.5,-152.5 330.5,-116.5 583.5,-116.5 583.5,-152.5"/>
<text xml:space="preserve" text-anchor="middle" x="457" y="-130.22" font-family="Times New Roman,serif" font-size="12.00">REGARDEZ LES TAGS QUI S&#39;APPLIQUENT</text>
</g>
<!-- cs12&#45;&gt;cs14 -->
<g id="edge6" class="edge">
<title>cs12&#45;&gt;cs14</title>
<path fill="none" stroke="black" d="M420.62,-189.31C426.16,-181.12 432.92,-171.12 439.09,-161.98"/>
<polygon fill="black" stroke="black" points="441.94,-164.03 444.64,-153.78 436.14,-160.11 441.94,-164.03"/>
</g>
<!-- cs15 -->
<g id="node9" class="node">
<title>cs15</title>
<polygon fill="none" stroke="black" points="422.5,-52 343.5,-52 343.5,-16 422.5,-16 422.5,-52"/>
<text xml:space="preserve" text-anchor="middle" x="383" y="-29.73" font-family="Times New Roman,serif" font-size="12.00">AVANTAGE</text>
</g>
<!-- cs14&#45;&gt;cs15 -->
<g id="edge7" class="edge">
<title>cs14&#45;&gt;cs15</title>
<path fill="none" stroke="black" d="M444.11,-116.34C432.72,-101.18 415.93,-78.83 402.83,-61.4"/>
<polygon fill="black" stroke="black" points="405.7,-59.39 396.9,-53.5 400.11,-63.6 405.7,-59.39"/>
<text xml:space="preserve" text-anchor="middle" x="447.18" y="-87.1" font-family="Times New Roman,serif" font-size="12.00">Plutôt </text>
<text xml:space="preserve" text-anchor="middle" x="447.18" y="-72.85" font-family="Times New Roman,serif" font-size="12.00"> positifs</text>
</g>
<!-- cs16 -->
<g id="node10" class="node">
<title>cs16</title>
<polygon fill="none" stroke="black" points="553.75,-52 440.25,-52 440.25,-16 553.75,-16 553.75,-52"/>
<text xml:space="preserve" text-anchor="middle" x="497" y="-29.73" font-family="Times New Roman,serif" font-size="12.00">DÉSADVANTAGE</text>
</g>
<!-- cs14&#45;&gt;cs16 -->
<g id="edge8" class="edge">
<title>cs14&#45;&gt;cs16</title>
<path fill="none" stroke="black" d="M463.97,-116.34C469.95,-101.6 478.7,-80.07 485.69,-62.86"/>
<polygon fill="black" stroke="black" points="488.89,-64.28 489.41,-53.69 482.4,-61.64 488.89,-64.28"/>
<text xml:space="preserve" text-anchor="middle" x="501.63" y="-87.1" font-family="Times New Roman,serif" font-size="12.00">Plutôt </text>
<text xml:space="preserve" text-anchor="middle" x="501.63" y="-72.85" font-family="Times New Roman,serif" font-size="12.00"> négatifs</text>
</g>
<!-- cs31 -->
<g id="node11" class="node">
<title>cs31</title>
<polygon fill="none" stroke="black" points="1029,-152.5 731,-152.5 731,-116.5 1029,-116.5 1029,-152.5"/>
<text xml:space="preserve" text-anchor="middle" x="880" y="-130.22" font-family="Times New Roman,serif" font-size="12.00">EST&#45;CE QUE ÇA CORRESPOND A VOS ATTENTES ?</text>
</g>
<!-- cs34 -->
<g id="node14" class="node">
<title>cs34</title>
<polygon fill="none" stroke="black" points="879.5,-52 716.5,-52 716.5,-16 879.5,-16 879.5,-52"/>
<text xml:space="preserve" text-anchor="middle" x="798" y="-29.73" font-family="Times New Roman,serif" font-size="12.00">CHANGEZ LES ATTENTES</text>
</g>
<!-- cs31&#45;&gt;cs34 -->
<g id="edge12" class="edge">
<title>cs31&#45;&gt;cs34</title>
<path fill="none" stroke="black" d="M865.72,-116.34C852.98,-101.04 834.15,-78.42 819.57,-60.91"/>
<polygon fill="black" stroke="black" points="822.45,-58.9 813.36,-53.45 817.07,-63.38 822.45,-58.9"/>
<text xml:space="preserve" text-anchor="middle" x="859.26" y="-79.97" font-family="Times New Roman,serif" font-size="12.00">Non</text>
</g>
<!-- cs35 -->
<g id="node15" class="node">
<title>cs35</title>
<polygon fill="none" stroke="black" points="1044.62,-52 897.38,-52 897.38,-16 1044.62,-16 1044.62,-52"/>
<text xml:space="preserve" text-anchor="middle" x="971" y="-29.73" font-family="Times New Roman,serif" font-size="12.00">SUIVEZ LES ATTENTES</text>
</g>
<!-- cs31&#45;&gt;cs35 -->
<g id="edge11" class="edge">
<title>cs31&#45;&gt;cs35</title>
<path fill="none" stroke="black" d="M895.85,-116.34C910.12,-100.9 931.27,-78 947.5,-60.43"/>
<polygon fill="black" stroke="black" points="949.78,-63.12 954,-53.4 944.64,-58.37 949.78,-63.12"/>
<text xml:space="preserve" text-anchor="middle" x="945.33" y="-79.97" font-family="Times New Roman,serif" font-size="12.00">Oui</text>
</g>
<!-- cs32 -->
<g id="node12" class="node">
<title>cs32</title>
<polygon fill="none" stroke="black" points="969.38,-311.75 790.62,-311.75 790.62,-275.75 969.38,-275.75 969.38,-311.75"/>
<text xml:space="preserve" text-anchor="middle" x="880" y="-289.48" font-family="Times New Roman,serif" font-size="12.00">CONSIDÉREZ LE CONTEXTE</text>
</g>
<!-- cs33 -->
<g id="node13" class="node">
<title>cs33</title>
<polygon fill="none" stroke="black" points="958.12,-225.5 801.88,-225.5 801.88,-189.5 958.12,-189.5 958.12,-225.5"/>
<text xml:space="preserve" text-anchor="middle" x="880" y="-203.22" font-family="Times New Roman,serif" font-size="12.00">EXAMINEZ LA RÉPONSE</text>
</g>
<!-- cs32&#45;&gt;cs33 -->
<g id="edge9" class="edge">
<title>cs32&#45;&gt;cs33</title>
<path fill="none" stroke="black" d="M880,-275.29C880,-264.34 880,-249.94 880,-237.32"/>
<polygon fill="black" stroke="black" points="883.5,-237.45 880,-227.45 876.5,-237.45 883.5,-237.45"/>
</g>
<!-- cs33&#45;&gt;cs31 -->
<g id="edge10" class="edge">
<title>cs33&#45;&gt;cs31</title>
<path fill="none" stroke="black" d="M880,-189.31C880,-181.73 880,-172.6 880,-164.04"/>
<polygon fill="black" stroke="black" points="883.5,-164.04 880,-154.04 876.5,-164.04 883.5,-164.04"/>
</g>
</g>
</svg>
